<mxfile host="app.diagrams.net" modified="2021-12-02T14:09:55.092Z" agent="5.0 (Windows)" etag="Ug9oSJbTZNHH0JOUeO4i" version="15.8.8" type="github">
  <diagram id="C5RBs43oDa-KdzZeNtuy" name="Page-1">
    <mxGraphModel dx="1585" dy="400" grid="1" gridSize="10" guides="1" tooltips="1" connect="1" arrows="1" fold="1" page="1" pageScale="1" pageWidth="827" pageHeight="1169" math="0" shadow="0">
      <root>
        <mxCell id="WIyWlLk6GJQsqaUBKTNV-0" />
        <mxCell id="WIyWlLk6GJQsqaUBKTNV-1" parent="WIyWlLk6GJQsqaUBKTNV-0" />
        <mxCell id="EfTYYjfYZqQY5irzmmSh-2" style="edgeStyle=orthogonalEdgeStyle;rounded=0;orthogonalLoop=1;jettySize=auto;html=1;exitX=0.5;exitY=1;exitDx=0;exitDy=0;entryX=0.5;entryY=0;entryDx=0;entryDy=0;" edge="1" parent="WIyWlLk6GJQsqaUBKTNV-1" source="EfTYYjfYZqQY5irzmmSh-0" target="EfTYYjfYZqQY5irzmmSh-1">
          <mxGeometry relative="1" as="geometry" />
        </mxCell>
        <mxCell id="EfTYYjfYZqQY5irzmmSh-0" value="A" style="ellipse;whiteSpace=wrap;html=1;" vertex="1" parent="WIyWlLk6GJQsqaUBKTNV-1">
          <mxGeometry x="170" y="90" width="120" height="80" as="geometry" />
        </mxCell>
        <mxCell id="EfTYYjfYZqQY5irzmmSh-5" value="&lt;br&gt;candidate&amp;nbsp; &amp;gt; upper_bound&lt;br&gt;&lt;br&gt;" style="edgeStyle=orthogonalEdgeStyle;rounded=0;orthogonalLoop=1;jettySize=auto;html=1;exitX=0;exitY=0.5;exitDx=0;exitDy=0;curved=1;" edge="1" parent="WIyWlLk6GJQsqaUBKTNV-1" source="EfTYYjfYZqQY5irzmmSh-1" target="EfTYYjfYZqQY5irzmmSh-4">
          <mxGeometry relative="1" as="geometry" />
        </mxCell>
        <mxCell id="EfTYYjfYZqQY5irzmmSh-6" value="candidate &amp;lt;= upper_bound" style="edgeStyle=orthogonalEdgeStyle;rounded=0;orthogonalLoop=1;jettySize=auto;html=1;exitX=1;exitY=0.5;exitDx=0;exitDy=0;curved=1;" edge="1" parent="WIyWlLk6GJQsqaUBKTNV-1" source="EfTYYjfYZqQY5irzmmSh-1" target="EfTYYjfYZqQY5irzmmSh-3">
          <mxGeometry relative="1" as="geometry" />
        </mxCell>
        <mxCell id="EfTYYjfYZqQY5irzmmSh-1" value="B" style="ellipse;whiteSpace=wrap;html=1;" vertex="1" parent="WIyWlLk6GJQsqaUBKTNV-1">
          <mxGeometry x="170" y="260" width="120" height="80" as="geometry" />
        </mxCell>
        <mxCell id="EfTYYjfYZqQY5irzmmSh-8" style="edgeStyle=orthogonalEdgeStyle;rounded=0;orthogonalLoop=1;jettySize=auto;html=1;exitX=0.5;exitY=1;exitDx=0;exitDy=0;entryX=0.5;entryY=0;entryDx=0;entryDy=0;" edge="1" parent="WIyWlLk6GJQsqaUBKTNV-1" source="EfTYYjfYZqQY5irzmmSh-3" target="EfTYYjfYZqQY5irzmmSh-7">
          <mxGeometry relative="1" as="geometry" />
        </mxCell>
        <mxCell id="EfTYYjfYZqQY5irzmmSh-3" value="C" style="ellipse;whiteSpace=wrap;html=1;" vertex="1" parent="WIyWlLk6GJQsqaUBKTNV-1">
          <mxGeometry x="360" y="400" width="120" height="80" as="geometry" />
        </mxCell>
        <mxCell id="EfTYYjfYZqQY5irzmmSh-25" style="edgeStyle=orthogonalEdgeStyle;curved=1;rounded=0;orthogonalLoop=1;jettySize=auto;html=1;exitX=0;exitY=1;exitDx=0;exitDy=0;" edge="1" parent="WIyWlLk6GJQsqaUBKTNV-1" source="EfTYYjfYZqQY5irzmmSh-4" target="EfTYYjfYZqQY5irzmmSh-24">
          <mxGeometry relative="1" as="geometry" />
        </mxCell>
        <mxCell id="EfTYYjfYZqQY5irzmmSh-4" value="I" style="ellipse;whiteSpace=wrap;html=1;" vertex="1" parent="WIyWlLk6GJQsqaUBKTNV-1">
          <mxGeometry x="-210" y="350" width="120" height="80" as="geometry" />
        </mxCell>
        <mxCell id="EfTYYjfYZqQY5irzmmSh-10" value="Not end of list of known primes" style="rounded=0;orthogonalLoop=1;jettySize=auto;html=1;exitX=0.5;exitY=1;exitDx=0;exitDy=0;entryX=0.5;entryY=0;entryDx=0;entryDy=0;edgeStyle=orthogonalEdgeStyle;curved=1;" edge="1" parent="WIyWlLk6GJQsqaUBKTNV-1" source="EfTYYjfYZqQY5irzmmSh-7" target="EfTYYjfYZqQY5irzmmSh-9">
          <mxGeometry relative="1" as="geometry" />
        </mxCell>
        <mxCell id="EfTYYjfYZqQY5irzmmSh-16" style="edgeStyle=orthogonalEdgeStyle;curved=1;rounded=0;orthogonalLoop=1;jettySize=auto;html=1;exitX=0;exitY=0;exitDx=0;exitDy=0;entryX=0.5;entryY=0;entryDx=0;entryDy=0;" edge="1" parent="WIyWlLk6GJQsqaUBKTNV-1" source="EfTYYjfYZqQY5irzmmSh-7" target="EfTYYjfYZqQY5irzmmSh-17">
          <mxGeometry relative="1" as="geometry">
            <mxPoint x="90" y="770" as="targetPoint" />
          </mxGeometry>
        </mxCell>
        <mxCell id="EfTYYjfYZqQY5irzmmSh-20" value="End of List" style="edgeLabel;html=1;align=center;verticalAlign=middle;resizable=0;points=[];" vertex="1" connectable="0" parent="EfTYYjfYZqQY5irzmmSh-16">
          <mxGeometry x="-0.3132" y="24" relative="1" as="geometry">
            <mxPoint as="offset" />
          </mxGeometry>
        </mxCell>
        <mxCell id="EfTYYjfYZqQY5irzmmSh-7" value="D" style="ellipse;whiteSpace=wrap;html=1;" vertex="1" parent="WIyWlLk6GJQsqaUBKTNV-1">
          <mxGeometry x="360" y="585" width="120" height="80" as="geometry" />
        </mxCell>
        <mxCell id="EfTYYjfYZqQY5irzmmSh-11" value="Not divisible by prime" style="edgeStyle=orthogonalEdgeStyle;curved=1;rounded=0;orthogonalLoop=1;jettySize=auto;html=1;exitX=1;exitY=0;exitDx=0;exitDy=0;entryX=1;entryY=0.5;entryDx=0;entryDy=0;" edge="1" parent="WIyWlLk6GJQsqaUBKTNV-1" source="EfTYYjfYZqQY5irzmmSh-9" target="EfTYYjfYZqQY5irzmmSh-7">
          <mxGeometry relative="1" as="geometry">
            <Array as="points">
              <mxPoint x="682" y="625" />
            </Array>
          </mxGeometry>
        </mxCell>
        <mxCell id="EfTYYjfYZqQY5irzmmSh-13" style="edgeStyle=orthogonalEdgeStyle;curved=1;rounded=0;orthogonalLoop=1;jettySize=auto;html=1;exitX=0;exitY=0.5;exitDx=0;exitDy=0;" edge="1" parent="WIyWlLk6GJQsqaUBKTNV-1" source="EfTYYjfYZqQY5irzmmSh-9" target="EfTYYjfYZqQY5irzmmSh-12">
          <mxGeometry relative="1" as="geometry" />
        </mxCell>
        <mxCell id="EfTYYjfYZqQY5irzmmSh-14" value="Divisible by prime" style="edgeLabel;html=1;align=center;verticalAlign=middle;resizable=0;points=[];" vertex="1" connectable="0" parent="EfTYYjfYZqQY5irzmmSh-13">
          <mxGeometry x="0.2909" y="-5" relative="1" as="geometry">
            <mxPoint as="offset" />
          </mxGeometry>
        </mxCell>
        <mxCell id="EfTYYjfYZqQY5irzmmSh-9" value="E" style="ellipse;whiteSpace=wrap;html=1;" vertex="1" parent="WIyWlLk6GJQsqaUBKTNV-1">
          <mxGeometry x="580" y="760" width="120" height="80" as="geometry" />
        </mxCell>
        <mxCell id="EfTYYjfYZqQY5irzmmSh-15" style="edgeStyle=orthogonalEdgeStyle;curved=1;rounded=0;orthogonalLoop=1;jettySize=auto;html=1;exitX=0.5;exitY=0;exitDx=0;exitDy=0;entryX=0;entryY=0.5;entryDx=0;entryDy=0;" edge="1" parent="WIyWlLk6GJQsqaUBKTNV-1" source="EfTYYjfYZqQY5irzmmSh-12" target="EfTYYjfYZqQY5irzmmSh-7">
          <mxGeometry relative="1" as="geometry" />
        </mxCell>
        <mxCell id="EfTYYjfYZqQY5irzmmSh-12" value="F" style="ellipse;whiteSpace=wrap;html=1;" vertex="1" parent="WIyWlLk6GJQsqaUBKTNV-1">
          <mxGeometry x="280" y="800" width="120" height="80" as="geometry" />
        </mxCell>
        <mxCell id="EfTYYjfYZqQY5irzmmSh-18" style="edgeStyle=orthogonalEdgeStyle;curved=1;rounded=0;orthogonalLoop=1;jettySize=auto;html=1;exitX=0;exitY=0;exitDx=0;exitDy=0;entryX=0.5;entryY=1;entryDx=0;entryDy=0;" edge="1" parent="WIyWlLk6GJQsqaUBKTNV-1" source="EfTYYjfYZqQY5irzmmSh-17" target="EfTYYjfYZqQY5irzmmSh-1">
          <mxGeometry relative="1" as="geometry">
            <mxPoint x="280" y="500" as="targetPoint" />
            <Array as="points">
              <mxPoint x="48" y="580" />
              <mxPoint x="230" y="580" />
            </Array>
          </mxGeometry>
        </mxCell>
        <mxCell id="EfTYYjfYZqQY5irzmmSh-19" value="Isn&#39;t prime" style="edgeLabel;html=1;align=center;verticalAlign=middle;resizable=0;points=[];" vertex="1" connectable="0" parent="EfTYYjfYZqQY5irzmmSh-18">
          <mxGeometry x="0.0827" y="5" relative="1" as="geometry">
            <mxPoint x="-2" as="offset" />
          </mxGeometry>
        </mxCell>
        <mxCell id="EfTYYjfYZqQY5irzmmSh-22" value="Is prime" style="edgeStyle=orthogonalEdgeStyle;curved=1;rounded=0;orthogonalLoop=1;jettySize=auto;html=1;exitX=0;exitY=0.5;exitDx=0;exitDy=0;entryX=0.992;entryY=0.375;entryDx=0;entryDy=0;entryPerimeter=0;" edge="1" parent="WIyWlLk6GJQsqaUBKTNV-1" source="EfTYYjfYZqQY5irzmmSh-17" target="EfTYYjfYZqQY5irzmmSh-21">
          <mxGeometry relative="1" as="geometry" />
        </mxCell>
        <mxCell id="EfTYYjfYZqQY5irzmmSh-17" value="G" style="ellipse;whiteSpace=wrap;html=1;" vertex="1" parent="WIyWlLk6GJQsqaUBKTNV-1">
          <mxGeometry x="30" y="800" width="120" height="80" as="geometry" />
        </mxCell>
        <mxCell id="EfTYYjfYZqQY5irzmmSh-23" style="edgeStyle=orthogonalEdgeStyle;curved=1;rounded=0;orthogonalLoop=1;jettySize=auto;html=1;exitX=0.5;exitY=0;exitDx=0;exitDy=0;entryX=0;entryY=1;entryDx=0;entryDy=0;" edge="1" parent="WIyWlLk6GJQsqaUBKTNV-1" source="EfTYYjfYZqQY5irzmmSh-21" target="EfTYYjfYZqQY5irzmmSh-1">
          <mxGeometry relative="1" as="geometry">
            <mxPoint x="240" y="470" as="targetPoint" />
          </mxGeometry>
        </mxCell>
        <mxCell id="EfTYYjfYZqQY5irzmmSh-21" value="J" style="ellipse;whiteSpace=wrap;html=1;" vertex="1" parent="WIyWlLk6GJQsqaUBKTNV-1">
          <mxGeometry x="-240" y="810" width="120" height="80" as="geometry" />
        </mxCell>
        <mxCell id="EfTYYjfYZqQY5irzmmSh-24" value="END" style="ellipse;whiteSpace=wrap;html=1;" vertex="1" parent="WIyWlLk6GJQsqaUBKTNV-1">
          <mxGeometry x="-370" y="470" width="120" height="80" as="geometry" />
        </mxCell>
      </root>
    </mxGraphModel>
  </diagram>
</mxfile>
